<svg width="100" height="28" fill="none" xmlns="http://www.w3.org/2000/svg">
    <path fill-rule="evenodd" clip-rule="evenodd"
          d="M.707 13.945a1 1 0 0 1 0-1.414L4.98 8.259a7.252 7.252 0 0 0-.686.994c-.679 1.16-1.007 2.493-1.007 3.975 0 1.493.318 2.833.98 3.994l.004.007c.183.313.384.608.604.883L.707 13.944ZM7.066 6.56c-.419.223-.806.48-1.162.773l4.36-4.36a1 1 0 0 1 1.414 0l4.488 4.489a.992.992 0 0 1 .092.105 6.888 6.888 0 0 0-1.432-1.007c-1.167-.618-2.465-.921-3.88-.921s-2.713.303-3.88.921ZM16.5 13.5l-.036-4.683a6.11 6.11 0 0 0-1.966-1.637c-1.056-.56-2.24-.84-3.552-.84-1.312 0-2.496.28-3.552.84a6.166 6.166 0 0 0-2.496 2.424c-.608 1.04-.912 2.248-.912 3.624 0 1.392.296 2.608.888 3.648a6.253 6.253 0 0 0 2.472 2.4c1.056.56 2.24.84 3.552.84 1.312 0 2.496-.28 3.552-.84a6.174 6.174 0 0 0 2.015-1.659L16.5 13.5Zm-.334 5.512a.997.997 0 0 0 .164-.214c-.458.429-.976.795-1.554 1.097-1.166.618-2.464.92-3.878.92-1.415 0-2.713-.302-3.88-.92l-.004-.003a7.041 7.041 0 0 1-1.053-.693l4.303 4.302a1 1 0 0 0 1.414 0l4.488-4.489ZM11 18a5 5 0 1 0 0-10 5 5 0 0 0 0 10Z"
          fill="url(#a)"/>
    <path d="M10.884 20.142c-1.312 0-2.496-.28-3.552-.84a6.253 6.253 0 0 1-2.472-2.4c-.592-1.04-.888-2.256-.888-3.648 0-1.376.304-2.584.912-3.624A6.166 6.166 0 0 1 7.38 7.206c1.056-.56 2.24-.84 3.552-.84 1.312 0 2.496.28 3.552.84A6.166 6.166 0 0 1 16.98 9.63c.608 1.04.912 2.248.912 3.624s-.312 2.592-.936 3.648a6.172 6.172 0 0 1-2.52 2.4c-1.056.56-2.24.84-3.552.84Zm0-3.552c.784 0 1.448-.288 1.992-.864.56-.576.84-1.4.84-2.472s-.272-1.896-.816-2.472a2.561 2.561 0 0 0-1.968-.864c-.8 0-1.464.288-1.992.864-.528.56-.792 1.384-.792 2.472 0 1.072.256 1.896.768 2.472a2.561 2.561 0 0 0 1.968.864ZM27.51 6.414c1.567 0 2.815.512 3.743 1.536.944 1.008 1.416 2.4 1.416 4.176v7.824h-4.08v-7.272c0-.896-.232-1.592-.696-2.088-.464-.496-1.088-.744-1.872-.744s-1.408.248-1.872.744c-.464.496-.696 1.192-.696 2.088v7.272H19.35V6.558h2.328c.981 0 1.776.795 1.776 1.776.416-.592.976-1.056 1.68-1.392.704-.352 1.496-.528 2.376-.528ZM47.425 13.038c0 .384-.024.784-.072 1.2h-9.288c.064.832.328 1.472.792 1.92.48.432 1.064.648 1.752.648 1.024 0 1.736-.432 2.136-1.296h4.368a5.916 5.916 0 0 1-1.224 2.376 5.958 5.958 0 0 1-2.184 1.656c-.88.4-1.864.6-2.952.6-1.312 0-2.48-.28-3.504-.84a5.975 5.975 0 0 1-2.4-2.4c-.576-1.04-.864-2.256-.864-3.648 0-1.392.28-2.608.84-3.648a5.975 5.975 0 0 1 2.4-2.4c1.024-.56 2.2-.84 3.528-.84 1.296 0 2.448.272 3.456.816a5.781 5.781 0 0 1 2.352 2.328c.576 1.008.864 2.184.864 3.528Zm-4.2-1.08c0-.704-.24-1.264-.72-1.68-.48-.416-1.08-.624-1.8-.624-.688 0-1.272.2-1.752.6-.464.4-.752.968-.864 1.704h5.136Z"
          fill="#1D284D"/>
    <path d="M54.768 20.116c-1.168 0-2.208-.2-3.12-.6-.912-.4-1.632-.944-2.16-1.632a4.386 4.386 0 0 1-.888-2.352h4.056c.048.464.264.84.648 1.128.384.288.856.432 1.416.432.512 0 .904-.096 1.176-.288.288-.208.432-.472.432-.792 0-.384-.2-.664-.6-.84-.4-.192-1.048-.4-1.944-.624-.96-.224-1.76-.456-2.4-.696a4.309 4.309 0 0 1-1.656-1.176c-.464-.544-.696-1.272-.696-2.184 0-.768.208-1.464.624-2.088.432-.64 1.056-1.144 1.872-1.512.832-.368 1.816-.552 2.952-.552 1.68 0 3 .416 3.96 1.248.976.832 1.536 1.936 1.68 3.312h-3.792a1.618 1.618 0 0 0-.624-1.104c-.336-.272-.784-.408-1.344-.408-.48 0-.848.096-1.104.288a.851.851 0 0 0-.384.744c0 .384.2.672.6.864.416.192 1.056.384 1.92.576.992.256 1.8.512 2.424.768.624.24 1.168.64 1.632 1.2.48.544.728 1.28.744 2.208 0 .784-.224 1.488-.672 2.112-.432.608-1.064 1.088-1.896 1.44-.816.352-1.768.528-2.856.528ZM70.215 6.388c1.536 0 2.768.512 3.696 1.536.928 1.008 1.392 2.4 1.392 4.176v7.824h-4.08v-7.272c0-.896-.232-1.592-.696-2.088-.464-.496-1.088-.744-1.872-.744s-1.408.248-1.872.744c-.464.496-.696 1.192-.696 2.088v7.272h-4.104V2.164h1.104a3 3 0 0 1 3 3v3.168c.416-.592.984-1.064 1.704-1.416.72-.352 1.528-.528 2.424-.528ZM79.499 5.14c-.72 0-1.312-.208-1.776-.624a2.116 2.116 0 0 1-.672-1.584c0-.64.224-1.168.672-1.584C78.187.916 78.779.7 79.499.7c.704 0 1.28.216 1.728.648.464.416.696.944.696 1.584 0 .624-.232 1.152-.696 1.584-.448.416-1.024.624-1.728.624Zm-.96 1.392a3 3 0 0 1 3 3v10.392h-4.104V6.532h1.104ZM87.897 8.428c.4-.624.952-1.128 1.656-1.512.704-.384 1.528-.576 2.472-.576 1.104 0 2.104.28 3 .84.896.56 1.6 1.36 2.112 2.4.528 1.04.792 2.248.792 3.624s-.264 2.592-.792 3.648c-.512 1.04-1.216 1.848-2.112 2.424-.896.56-1.896.84-3 .84-.928 0-1.752-.192-2.472-.576-.704-.384-1.256-.88-1.656-1.488v8.256h-4.104V6.532H86c1.047 0 1.896.849 1.896 1.896Zm5.856 4.776c0-1.024-.288-1.824-.864-2.4-.56-.592-1.256-.888-2.088-.888-.816 0-1.512.296-2.088.888-.56.592-.84 1.4-.84 2.424s.28 1.832.84 2.424c.576.592 1.272.888 2.088.888.816 0 1.512-.296 2.088-.888.576-.608.864-1.424.864-2.448Z"
          fill="#007AC1"/>
    <defs>
        <linearGradient id="a" x1="11" y1="3" x2="11" y2="24" gradientUnits="userSpaceOnUse">
            <stop stop-color="#CFFF95"/>
            <stop offset="1" stop-color="#007AC1"/>
        </linearGradient>
    </defs>
</svg>
